<svg xmlns="http://www.w3.org/2000/svg" width="130" height="50" viewBox="0 0 130 50">
    <defs>
        <linearGradient id="a" x1="31.625%" x2="60.648%" y1="5.89%" y2="97.457%">
            <stop offset="0%" stop-color="#1C1651"/>
            <stop offset="63.28%" stop-color="#1A3F7C"/>
            <stop offset="100%" stop-color="#045494"/>
        </linearGradient>
        <linearGradient id="b" x1="30.7%" x2="64.054%" y1="4.021%" y2="95.565%">
            <stop offset="0%" stop-color="#E82132"/>
            <stop offset="17.38%" stop-color="#DF2233"/>
            <stop offset="38.45%" stop-color="#CB2336"/>
            <stop offset="61.44%" stop-color="#AD243A"/>
            <stop offset="85.63%" stop-color="#87223C"/>
            <stop offset="100%" stop-color="#6E1E3B"/>
        </linearGradient>
        <linearGradient id="c" x1="25.673%" x2="633.231%" y1="50%" y2="50%">
            <stop offset="0%" stop-color="#045494"/>
            <stop offset="7.26%" stop-color="#175394"/>
            <stop offset="16.07%" stop-color="#335294"/>
            <stop offset="25.68%" stop-color="#505095"/>
            <stop offset="35.86%" stop-color="#6E4D96"/>
            <stop offset="46.39%" stop-color="#8F4798"/>
            <stop offset="50%" stop-color="#9B4499"/>
            <stop offset="58.74%" stop-color="#A84088"/>
            <stop offset="78.12%" stop-color="#C63663"/>
            <stop offset="100%" stop-color="#E82132"/>
        </linearGradient>
        <linearGradient id="d" x1="-93.611%" x2="499.202%" y1="50%" y2="50%">
            <stop offset="0%" stop-color="#045494"/>
            <stop offset="7.26%" stop-color="#175394"/>
            <stop offset="16.07%" stop-color="#335294"/>
            <stop offset="25.68%" stop-color="#505095"/>
            <stop offset="35.86%" stop-color="#6E4D96"/>
            <stop offset="46.39%" stop-color="#8F4798"/>
            <stop offset="50%" stop-color="#9B4499"/>
            <stop offset="58.74%" stop-color="#A84088"/>
            <stop offset="78.12%" stop-color="#C63663"/>
            <stop offset="100%" stop-color="#E82132"/>
        </linearGradient>
        <linearGradient id="e" x1="-235.564%" x2="358.265%" y1="49.998%" y2="49.998%">
            <stop offset="0%" stop-color="#045494"/>
            <stop offset="7.26%" stop-color="#175394"/>
            <stop offset="16.07%" stop-color="#335294"/>
            <stop offset="25.68%" stop-color="#505095"/>
            <stop offset="35.86%" stop-color="#6E4D96"/>
            <stop offset="46.39%" stop-color="#8F4798"/>
            <stop offset="50%" stop-color="#9B4499"/>
            <stop offset="58.74%" stop-color="#A84088"/>
            <stop offset="78.12%" stop-color="#C63663"/>
            <stop offset="100%" stop-color="#E82132"/>
        </linearGradient>
        <linearGradient id="f" x1="-374.267%" x2="217.494%" y1="50%" y2="50%">
            <stop offset="0%" stop-color="#045494"/>
            <stop offset="7.26%" stop-color="#175394"/>
            <stop offset="16.07%" stop-color="#335294"/>
            <stop offset="25.68%" stop-color="#505095"/>
            <stop offset="35.86%" stop-color="#6E4D96"/>
            <stop offset="46.39%" stop-color="#8F4798"/>
            <stop offset="50%" stop-color="#9B4499"/>
            <stop offset="58.74%" stop-color="#A84088"/>
            <stop offset="78.12%" stop-color="#C63663"/>
            <stop offset="100%" stop-color="#E82132"/>
        </linearGradient>
        <linearGradient id="g" x1="-372.996%" x2="75.502%" y1="49.996%" y2="49.996%">
            <stop offset="0%" stop-color="#045494"/>
            <stop offset="7.26%" stop-color="#175394"/>
            <stop offset="16.07%" stop-color="#335294"/>
            <stop offset="25.68%" stop-color="#505095"/>
            <stop offset="35.86%" stop-color="#6E4D96"/>
            <stop offset="46.39%" stop-color="#8F4798"/>
            <stop offset="50%" stop-color="#9B4499"/>
            <stop offset="58.74%" stop-color="#A84088"/>
            <stop offset="78.12%" stop-color="#C63663"/>
            <stop offset="100%" stop-color="#E82132"/>
        </linearGradient>
    </defs>
    <g fill="none" fill-rule="evenodd">
        <rect width="130" height="50" fill="#FFF" rx="4"/>
        <g fill-rule="nonzero">
            <g fill="#58595B">
                <path d="M51.75 29.362l4.242-10.629h1.494l4.177 10.63h-1.639l-1.164-2.945h-4.53l-1.173 2.944H51.75zm3.029-4.071h3.633l-1.81-4.577-1.823 4.577zM62.584 29.09v-1.301c.928.46 1.736.69 2.423.69.405 0 .742-.11 1.013-.33.273-.221.408-.497.408-.828 0-.206-.067-.407-.202-.604-.135-.196-.445-.395-.932-.596l-.831-.353c-.641-.263-1.109-.57-1.402-.92-.294-.345-.441-.77-.441-1.272 0-.628.229-1.15.687-1.567.458-.416 1.135-.626 2.033-.626.439 0 .982.06 1.628.18l.297.057v1.185c-.797-.239-1.433-.359-1.906-.359-.459 0-.802.098-1.028.295-.227.197-.341.429-.341.698 0 .21.077.4.231.567.15.173.419.343.81.51l.687.289c.92.388 1.505.772 1.756 1.15.25.379.375.79.375 1.236 0 .427-.115.821-.35 1.186-.233.364-.576.649-1.03.856-.456.205-.961.308-1.52.308-.648 0-1.437-.15-2.365-.452zM68.943 29.09v-1.301c.928.46 1.736.69 2.424.69.403 0 .742-.11 1.014-.33.271-.221.408-.497.408-.828 0-.206-.069-.407-.203-.604-.135-.196-.446-.395-.932-.596l-.832-.353c-.64-.263-1.108-.57-1.401-.92-.295-.345-.442-.77-.442-1.272 0-.628.23-1.15.687-1.567.459-.416 1.136-.626 2.034-.626.438 0 .982.06 1.628.18l.297.057v1.185c-.797-.239-1.433-.359-1.906-.359-.46 0-.802.098-1.028.295-.227.197-.342.429-.342.698 0 .21.078.4.233.567.148.173.418.343.809.51l.686.289c.92.388 1.505.772 1.757 1.15a2.205 2.205 0 0 1 .025 2.422c-.234.364-.576.649-1.03.856a3.653 3.653 0 0 1-1.52.308c-.649 0-1.438-.15-2.366-.452zM76.066 20.149v-1.416h1.42v1.416h-1.42zm0 9.213v-7.798h1.42v7.798h-1.42zM79.47 29.09v-1.301c.928.46 1.737.69 2.425.69.403 0 .74-.11 1.013-.33.272-.221.407-.497.407-.828 0-.206-.067-.407-.201-.604-.135-.196-.447-.395-.933-.596l-.831-.353c-.641-.263-1.109-.57-1.403-.92-.294-.345-.44-.77-.44-1.272 0-.628.229-1.15.687-1.567.458-.416 1.136-.626 2.033-.626.439 0 .982.06 1.628.18l.298.057v1.185c-.798-.239-1.433-.359-1.906-.359-.46 0-.803.098-1.03.295-.226.197-.34.429-.34.698 0 .21.077.4.231.567.15.173.419.343.81.51l.687.289c.92.388 1.505.772 1.755 1.15.251.379.376.79.376 1.236 0 .427-.117.821-.35 1.186-.233.364-.576.649-1.03.856a3.652 3.652 0 0 1-1.52.308c-.649 0-1.438-.15-2.365-.452zM90.681 29.362c-.437.12-.818.18-1.14.18-.703 0-1.26-.202-1.674-.607-.413-.404-.62-.98-.62-1.727v-4.582h-.981v-1.062h.981v-1.415l1.42-.137v1.552h2.05v1.062h-2.05v4.323c0 .546.107.937.319 1.174.21.238.549.355 1.01.355.187 0 .414-.03.685-.092v.976zM96.718 28.371c-.43.388-.852.68-1.269.876a2.861 2.861 0 0 1-1.225.294c-.561 0-1.083-.181-1.565-.545-.482-.364-.724-.896-.724-1.595 0-.764.337-1.398 1.01-1.898.672-.501 1.748-.751 3.227-.751h.336v-.944c0-.374-.05-.647-.154-.817a1.02 1.02 0 0 0-.48-.4c-.219-.096-.488-.144-.811-.144-.748 0-1.565.23-2.451.69v-1.171c.97-.389 1.884-.582 2.74-.582.468 0 .897.073 1.288.22.392.146.705.376.94.69.232.314.35.818.35 1.513v3.537c0 .393.03.657.094.793a.7.7 0 0 0 .262.313.721.721 0 0 0 .394.108c.062 0 .153-.009.275-.029l.1.782c-.322.154-.678.23-1.067.23-.26 0-.51-.083-.75-.25-.241-.168-.415-.475-.52-.92zm-.21-.768v-2.018l-.464-.014c-.76 0-1.399.143-1.915.43-.514.287-.772.678-.772 1.17 0 .341.125.629.378.863.254.234.55.352.887.352.305 0 .615-.067.929-.198.314-.132.633-.327.957-.585zM100.402 29.362v-7.798h1.422v1.457c.361-.522.78-.925 1.258-1.21.48-.285.975-.427 1.49-.427.663 0 1.201.21 1.616.629.413.42.62 1 .62 1.743v5.607h-1.42v-5.148c0-.542-.05-.899-.145-1.071a.99.99 0 0 0-.404-.399 1.16 1.16 0 0 0-.555-.14c-.352 0-.73.107-1.138.323-.405.216-.847.676-1.322 1.381v5.054h-1.422zM114.487 29.125c-.911.278-1.698.416-2.36.416a3.424 3.424 0 0 1-1.904-.563 3.592 3.592 0 0 1-1.305-1.484c-.293-.614-.441-1.306-.441-2.078 0-1.15.317-2.11.952-2.879.634-.77 1.614-1.153 2.94-1.153.61 0 1.286.083 2.031.251v1.184c-.794-.234-1.441-.35-1.94-.35-.79 0-1.383.296-1.783.887-.399.592-.599 1.293-.599 2.103 0 .878.225 1.587.674 2.129.45.541 1.034.812 1.751.812.643 0 1.303-.166 1.984-.496v1.22zM122.131 29.11c-.966.288-1.792.431-2.48.431-1.235 0-2.207-.407-2.915-1.224-.707-.816-1.06-1.78-1.06-2.89 0-.733.155-1.43.468-2.09.312-.66.72-1.152 1.227-1.472.504-.32 1.099-.481 1.78-.481.919 0 1.65.323 2.197.969.547.647.82 1.614.82 2.901l-.007.432h-5.036c.078.688.23 1.22.457 1.593.224.374.525.665.9.873.375.209.85.312 1.43.312.294 0 .587-.024.879-.075.291-.05.738-.183 1.34-.398v1.12zm-4.94-4.488h3.555c0-.78-.156-1.337-.47-1.673-.314-.335-.717-.502-1.207-.502-.56 0-.996.18-1.31.541-.315.362-.504.907-.569 1.634z"/>
            </g>
            <path fill="url(#a)" d="M30.25 26.926a2.99 2.99 0 0 0-2.031-1.807 2.995 2.995 0 0 0-1.834.099 2.974 2.974 0 0 0-1.365 1.042 12.856 12.856 0 0 1-4.708 3.092 12.976 12.976 0 0 1-7.931.426h-.001c-3.465-.908-6.42-3.215-8.107-6.325l-.065-.12c-.038-.073-.077-.144-.116-.222-.035-.068-.068-.14-.101-.21l-.042-.09c-.117-.249-.256-.545-.372-.857C.93 14.846 3.01 9.034 7.52 5.258c0 0 .465-.315.25-.677-.214-.365-.55-.25-.704-.142l-.41.287C.82 8.808-1.47 16.281 1.088 22.899c2.064 5.339 6.632 9.4 12.219 10.864 3.661.959 7.473.755 11.022-.59a18.002 18.002 0 0 0 5.088-2.958l-.045-.054.05.05a2.955 2.955 0 0 0 .828-3.285z" transform="translate(8 6)"/>
            <path fill="url(#b)" d="M37.07 13.582a19.305 19.305 0 0 0-.64-1.776l-.115-.263a16.798 16.798 0 0 0-.251-.559l-.15-.305a20.802 20.802 0 0 0-.42-.805 15.838 15.838 0 0 0-.283-.487l-.17-.283c-.11-.177-.224-.352-.339-.524l-.14-.213c-.163-.237-.331-.47-.505-.7l-.144-.183c-.13-.167-.26-.332-.396-.496l-.22-.255c-.114-.133-.23-.265-.35-.397l-.25-.267a17.12 17.12 0 0 0-.346-.354c-.088-.09-.177-.177-.267-.265l-.322-.3-.313-.284c-.133-.117-.27-.23-.422-.356a18.577 18.577 0 0 0-.875-.686 9.204 9.204 0 0 0-.22-.156l-.106-.074a15.74 15.74 0 0 0-.73-.487 21.354 21.354 0 0 0-.734-.446l-.385-.214a17.02 17.02 0 0 0-.362-.193c-.073-.038-.377-.188-.377-.188a16.893 16.893 0 0 0-.39-.19l-.199-.087c-.333-.15-.682-.294-1.04-.43l-.235-.091a20.3 20.3 0 0 0-.506-.174l-.286-.095a19.464 19.464 0 0 0-.512-.154l-.287-.081a29.89 29.89 0 0 0-.527-.134L22.987.57a16.22 16.22 0 0 0-.555-.118L22.26.42a19.165 19.165 0 0 0-2.057-.268l-.17-.014a18.92 18.92 0 0 0-.846-.036A15.16 15.16 0 0 0 18.595.1l-.25.005c-.2.004-.4.01-.604.02l-.214.015a19.31 19.31 0 0 0-5.194 1.064 2.879 2.879 0 0 0-1.76 3.683 2.922 2.922 0 0 0 3.718 1.742 15.172 15.172 0 0 1 9.278-.292c4.67 1.335 8.435 4.835 10.07 9.363 1.784 4.944.794 10.536-2.573 14.583a17.776 17.776 0 0 1-7.24 4.814 17.766 17.766 0 0 1-10.877.343c-4.401-1.257-8.695-4.05-11-7.946 0 0-.226-.38-.552-.199-.365.205-.145.583-.145.583 2.4 4.54 7.74 8.06 12.237 9.347a19.147 19.147 0 0 0 11.711-.37c9.592-3.396 14.806-13.619 11.87-23.272z" transform="translate(8 6)"/>
            <g>
                <path fill="url(#c)" d="M2.804 5.537L1.658 3.245l-.551.786v1.506H.037V.199h1.07v2.406L2.787.199h.997l-1.5 2.152 1.554 3.186z" transform="translate(14.89 20.97)"/>
                <path fill="url(#d)" d="M6.607 5.537c-.551 0-1.026-.112-1.412-.334-.36-.206-.536-.44-.536-.713V1.25c0-.273.175-.508.536-.715C5.581.313 6.055.2 6.607.2c.55 0 1.026.114 1.411.336.361.207.537.442.537.715v3.24c0 .274-.176.506-.536.713-.386.222-.86.334-1.412.334zm0-4.865a1.15 1.15 0 0 0-.59.143c-.238.138-.288.313-.288.435v3.24c0 .123.05.297.29.435.161.092.36.14.588.14.228 0 .427-.048.59-.14.244-.137.295-.311.295-.435V1.25c0-.122-.051-.297-.293-.436a1.179 1.179 0 0 0-.592-.142z" transform="translate(14.89 20.97)"/>
                <path fill="url(#e)" d="M12.608 5.537l-.705-2.43h-1.03v2.43H9.817V.209l2.66.007c.354 0 .658.071.904.212.219.125.325.264.325.422v1.622c0 .084 0 .342-.58.536l-.154.052.682 2.477h-1.046zM10.873 2.65h1.065a.908.908 0 0 0 .474-.118c.196-.118.238-.261.238-.36V1.158c0-.102-.041-.25-.238-.368a.909.909 0 0 0-.474-.118h-1.065V2.65z" transform="translate(14.89 20.97)"/>
                <path fill="url(#f)" d="M14.983 5.537V.199h3.902v.473h-2.833v1.962h2.121v.472h-2.12v1.959h2.832v.472z" transform="translate(14.89 20.97)"/>
                <path fill="url(#g)" d="M23.6 5.537l-.422-1.215-2.245-.008-.422 1.223h-1.03L21.475.2h1.16l1.995 5.337H23.6zm-1.712-3.939l-.79 2.26h1.914l-.823-2.374h-.247l-.054.114z" transform="translate(14.89 20.97)"/>
            </g>
        </g>
    </g>
</svg>
