<svg xmlns="http://www.w3.org/2000/svg" width="80" height="80" viewBox="0 0 80 80">
    <g fill="none" fill-rule="evenodd">
        <path fill="#BDC3D8" d="M9.753 72.483h60v-44h-60z"/>
        <path fill="#FFF" d="M66.753 28.482h-57v40h55a2 2 0 0 0 2-2v-38z"/>
        <path fill="#21365F" d="M10.503 71.733h58.5v-42.5h-58.5v42.5zm59.25 1.5h-60a.75.75 0 0 1-.75-.75v-44a.75.75 0 0 1 .75-.75h60a.75.75 0 0 1 .75.75v44a.75.75 0 0 1-.75.75z"/>
        <path fill="#21365F" d="M71.753 73.233h-64a.75.75 0 0 1 0-1.5h64a.75.75 0 0 1 0 1.5"/>
        <path fill="#BDC3D8" d="M14.751 46.484h6v-12h-6z"/>
        <path fill="#FFF" d="M18.75 34.484h-3.999v10h2.999a1 1 0 0 0 1-1v-9z"/>
        <path fill="#21365F" d="M15.5 45.734H20v-10.5h-4.5v10.5zm5.25 1.5h-6a.75.75 0 0 1-.75-.75v-12a.75.75 0 0 1 .75-.75h6a.75.75 0 0 1 .75.75v12a.75.75 0 0 1-.75.75z"/>
        <path fill="#21365F" d="M21.25 47.234h-7a.75.75 0 0 1 0-1.5h7a.75.75 0 0 1 0 1.5"/>
        <path fill="#BDC3D8" d="M14.751 66.486h6v-12h-6z"/>
        <path fill="#FFF" d="M18.75 54.486h-3.999v10h2.999a1 1 0 0 0 1-1v-9z"/>
        <path fill="#21365F" d="M15.5 65.736H20v-10.5h-4.5v10.5zm5.25 1.5h-6a.75.75 0 0 1-.75-.75v-12a.75.75 0 0 1 .75-.75h6a.75.75 0 0 1 .75.75v12a.75.75 0 0 1-.75.75z"/>
        <path fill="#21365F" d="M21.25 67.236h-7a.75.75 0 0 1 0-1.5h7a.75.75 0 0 1 0 1.5"/>
        <path fill="#BDC3D8" d="M25.752 66.486h6v-12h-6z"/>
        <path fill="#FFF" d="M29.752 54.486h-4v10h3a1 1 0 0 0 1-1v-9z"/>
        <path fill="#21365F" d="M26.501 65.736h4.5v-10.5h-4.5v10.5zm5.25 1.5h-6a.75.75 0 0 1-.75-.75v-12a.75.75 0 0 1 .75-.75h6a.75.75 0 0 1 .75.75v12a.75.75 0 0 1-.75.75z"/>
        <path fill="#21365F" d="M32.251 67.236h-7a.75.75 0 0 1 0-1.5h7a.75.75 0 0 1 0 1.5"/>
        <path fill="#BDC3D8" d="M36.753 66.486h6v-12h-6z"/>
        <path fill="#FFF" d="M40.753 54.486h-4v10h3a1 1 0 0 0 1-1v-9z"/>
        <path fill="#21365F" d="M37.503 65.736h4.5v-10.5h-4.5v10.5zm5.25 1.5h-6a.75.75 0 0 1-.75-.75v-12a.75.75 0 0 1 .75-.75h6a.75.75 0 0 1 .75.75v12a.75.75 0 0 1-.75.75z"/>
        <path fill="#21365F" d="M43.253 67.236h-7a.75.75 0 0 1 0-1.5h7a.75.75 0 0 1 0 1.5"/>
        <path fill="#BDC3D8" d="M25.752 46.484h6v-12h-6z"/>
        <path fill="#FFF" d="M29.752 34.484h-4v10h3a1 1 0 0 0 1-1v-9z"/>
        <path fill="#21365F" d="M26.501 45.734h4.5v-10.5h-4.5v10.5zm5.25 1.5h-6a.75.75 0 0 1-.75-.75v-12a.75.75 0 0 1 .75-.75h6a.75.75 0 0 1 .75.75v12a.75.75 0 0 1-.75.75z"/>
        <path fill="#21365F" d="M32.251 47.234h-7a.75.75 0 0 1 0-1.5h7a.75.75 0 0 1 0 1.5"/>
        <path fill="#BDC3D8" d="M36.753 46.484h6v-12h-6z"/>
        <path fill="#FFF" d="M40.753 34.484h-4v10h3a1 1 0 0 0 1-1v-9z"/>
        <path fill="#21365F" d="M37.503 45.734h4.5v-10.5h-4.5v10.5zm5.25 1.5h-6a.75.75 0 0 1-.75-.75v-12a.75.75 0 0 1 .75-.75h6a.75.75 0 0 1 .75.75v12a.75.75 0 0 1-.75.75z"/>
        <path fill="#21365F" d="M43.253 47.234h-7a.75.75 0 0 1 0-1.5h7a.75.75 0 0 1 0 1.5"/>
        <path fill="#BDC3D8" d="M47.754 46.484h6v-12h-6z"/>
        <path fill="#FFF" d="M51.754 34.484h-4v10h3a1 1 0 0 0 1-1v-9z"/>
        <path fill="#21365F" d="M48.504 45.734h4.5v-10.5h-4.5v10.5zm5.25 1.5h-6a.75.75 0 0 1-.75-.75v-12a.75.75 0 0 1 .75-.75h6a.75.75 0 0 1 .75.75v12a.75.75 0 0 1-.75.75z"/>
        <path fill="#21365F" d="M54.254 47.234h-7a.75.75 0 0 1 0-1.5h7a.75.75 0 0 1 0 1.5"/>
        <path fill="#BDC3D8" d="M58.755 46.484h6v-12h-6z"/>
        <path fill="#FFF" d="M62.755 34.484h-4v10h3a1 1 0 0 0 1-1v-9z"/>
        <path fill="#21365F" d="M59.505 45.734h4.5v-10.5h-4.5v10.5zm5.25 1.5h-6a.75.75 0 0 1-.75-.75v-12a.75.75 0 0 1 .75-.75h6a.75.75 0 0 1 .75.75v12a.75.75 0 0 1-.75.75z"/>
        <path fill="#21365F" d="M65.255 47.234h-7a.75.75 0 0 1 0-1.5h7a.75.75 0 0 1 0 1.5"/>
        <path fill="#BDC3D8" d="M61.752 12.482H17.754l-10.001 16h64z"/>
        <path fill="#FFF" d="M57.627 12.482H17.754l-8.126 13h54.32c.785 0 1.264-.865.848-1.53l-7.169-11.47z"/>
        <path fill="#21365F" d="M9.106 27.732H70.4l-9.064-14.5H18.17l-9.063 14.5zm-1.354 1.5a.751.751 0 0 1-.635-1.148l10.001-15.999a.747.747 0 0 1 .635-.353h44c.257 0 .498.133.634.353l10.001 16a.75.75 0 0 1-.636 1.147h-64z"/>
        <path fill="#FFF4B7" d="M43.753 22.482h-8a3 3 0 0 1-3-3v-8a3 3 0 0 1 3-3h8a3 3 0 0 1 3 3v8c0 1.656-1.344 3-3 3"/>
        <path fill="#21365F" d="M35.752 9.232a2.253 2.253 0 0 0-2.25 2.25v8c0 1.24 1.01 2.25 2.25 2.25h8c1.24 0 2.25-1.01 2.25-2.25v-8c0-1.24-1.01-2.25-2.25-2.25h-8zm8 14h-8a3.755 3.755 0 0 1-3.75-3.75v-8a3.755 3.755 0 0 1 3.75-3.75h8a3.755 3.755 0 0 1 3.75 3.75v8a3.755 3.755 0 0 1-3.75 3.75z"/>
        <path fill="#21365F" d="M42.752 16.232h-6a.75.75 0 0 1 0-1.5h6a.75.75 0 0 1 0 1.5"/>
        <path fill="#21365F" d="M39.002 18.482v-6a.75.75 0 0 1 1.5 0v6a.75.75 0 0 1-1.5 0z"/>
        <path fill="#BDC3D8" d="M56.255 72.483h8V54.486h-8z"/>
        <path fill="#FFF" d="M60.254 69.483h-4V54.486h5v13.997a1 1 0 0 1-1 1"/>
        <path fill="#21365F" d="M57.004 71.733h6.5V55.236h-6.5v16.497zm7.25 1.5h-8a.75.75 0 0 1-.75-.75V54.486a.75.75 0 0 1 .75-.75h8a.75.75 0 0 1 .75.75v17.997a.75.75 0 0 1-.75.75z"/>
        <path fill="#BDC3D8" d="M48.255 72.483h8V54.486h-8z"/>
        <path fill="#FFF" d="M52.254 69.483h-4V54.486h5v13.997a1 1 0 0 1-1 1"/>
        <path fill="#21365F" d="M49.004 71.733h6.5V55.236h-6.5v16.497zm7.25 1.5h-8a.75.75 0 0 1-.75-.75V54.486a.75.75 0 0 1 .75-.75h8a.75.75 0 0 1 .75.75v17.997a.75.75 0 0 1-.75.75z"/>
        <path fill="#21365F" d="M65.254 55.236h-18a.75.75 0 0 1 0-1.5h18a.75.75 0 0 1 0 1.5M54.504 64.732a.75.75 0 1 1-1.5.001.75.75 0 0 1 1.5 0M59.505 64.732a.75.75 0 1 1-1.5 0 .75.75 0 0 1 1.5 0M76.753 58.232h-4a.75.75 0 0 1 0-1.5h4a.75.75 0 0 1 0 1.5"/>
        <path fill="#21365F" d="M74.753 60.232a.75.75 0 0 1-.75-.75v-4a.75.75 0 0 1 1.5 0v4a.75.75 0 0 1-.75.75M75.503 51.482a.75.75 0 1 1-1.5.001.75.75 0 0 1 1.5 0M75.503 48.481a.75.75 0 1 1-1.5.001.75.75 0 0 1 1.5 0M75.503 44.48a.75.75 0 1 1-1.5.001.75.75 0 0 1 1.5 0M75.503 38.48a.75.75 0 1 1-1.5.001.75.75 0 0 1 1.5 0M6.752 44.233h-4a.75.75 0 0 1 0-1.5h4a.75.75 0 0 1 0 1.5"/>
        <path fill="#21365F" d="M4.752 46.233a.75.75 0 0 1-.75-.75v-4a.75.75 0 0 1 1.5 0v4a.75.75 0 0 1-.75.75M4.002 49.484a.75.75 0 1 1 1.5 0 .75.75 0 0 1-1.5 0M4.002 53.484a.75.75 0 1 1 1.5 0 .75.75 0 0 1-1.5 0M4.002 58.484a.75.75 0 1 1 1.5 0 .75.75 0 0 1-1.5 0M4.002 66.485a.75.75 0 1 1 1.5 0 .75.75 0 0 1-1.5 0"/>
    </g>
</svg>
