<svg id="Layer_2" data-name="Layer 2" xmlns="http://www.w3.org/2000/svg" viewBox="0 0 44 44"><defs><style>.cls-1{fill:#fff;}.cls-2{fill:#4c4c4c;}.cls-3{font-size:14px;fill:#dc3347;font-family:NotoSansCJKkr-Black-KSCpc-EUC-H, Noto Sans CJK KR;}</style></defs><title>ic-mail</title><polygon class="cls-1" points="1 41.47 1 18.93 22 3.79 43 18.93 43 41.47 1 41.47"/><path class="cls-2" d="M22,5,42,19.44v21H2v-21L22,5m0-2.47L0,18.42v24H44v-24L22,2.56Z"/><polygon class="cls-1" points="3.1 41.47 22 27.84 40.9 41.47 3.1 41.47"/><path class="cls-2" d="M22,29.07,37.81,40.47H6.19L22,29.07m0-2.47L0,42.47H44L22,26.6Z"/><rect class="cls-1" x="7.14" y="2.54" width="29.72" height="38.93"/><path class="cls-2" d="M35.86,3.53V40.47H8.14V3.53H35.86m2-2H6.14V42.47H37.86V1.53Z"/><polygon class="cls-1" points="1 41.47 1 20.05 21 30.29 21 41.47 1 41.47"/><path class="cls-2" d="M2,21.69,20,30.9v9.57H2V21.69M0,18.42v24H22V29.67L0,18.42Z"/><polygon class="cls-1" points="23 41.47 23 30.29 43 20.05 43 41.47 23 41.47"/><path class="cls-2" d="M42,21.69V40.47H24V30.9l18-9.21m2-3.27L22,29.67V42.47H44v-24Z"/><polygon class="cls-1" points="3.1 41.47 22 27.84 40.9 41.47 3.1 41.47"/><path class="cls-2" d="M22,29.07,37.81,40.47H6.19L22,29.07m0-2.47L0,42.47H44L22,26.6Z"/><text class="cls-3" transform="translate(14.75 19)">@</text></svg>