<svg width="60" height="60" viewBox="0 0 60 60" fill="none" xmlns="http://www.w3.org/2000/svg">
<path d="M46 23.5V17C46 10.9249 41.0751 6 35 6H17C10.9249 6 6 10.9249 6 17V55C6 55.5523 6.44771 56 7 56H45C45.5523 56 46 55.5523 46 55V49.5" stroke="#162043" stroke-width="2"/>
<rect x="18" y="13" width="16" height="2" rx="1" fill="#162043"/>
<path d="M20 29C20 25.6863 22.6863 23 26 23H50C53.3137 23 56 25.6863 56 29V43C56 46.3137 53.3137 49 50 49H44.4853C42.894 49 41.3679 49.6321 40.2426 50.7574L38 53L35.7574 50.7574C34.6321 49.6321 33.106 49 31.5147 49H26C22.6863 49 20 46.3137 20 43V29Z" stroke="#162043" stroke-width="2" stroke-linejoin="round"/>
<path fill-rule="evenodd" clip-rule="evenodd" d="M36 28C35.4477 28 35 28.4477 35 29V33H31C30.4477 33 30 33.4477 30 34V38C30 38.5523 30.4477 39 31 39H35V43C35 43.5523 35.4477 44 36 44H40C40.5523 44 41 43.5523 41 43V39H45C45.5523 39 46 38.5523 46 38V34C46 33.4477 45.5523 33 45 33H41V29C41 28.4477 40.5523 28 40 28H36Z" fill="#FA6231"/>
<path d="M35 33V34H36V33H35ZM35 39H36V38H35V39ZM41 39V38H40V39H41ZM41 33H40V34H41V33ZM36 29V27C34.8954 27 34 27.8954 34 29H36ZM36 33V29H34V33H36ZM31 34H35V32H31V34ZM31 34V32C29.8954 32 29 32.8954 29 34H31ZM31 38V34H29V38H31ZM31 38H29C29 39.1046 29.8954 40 31 40V38ZM35 38H31V40H35V38ZM36 43V39H34V43H36ZM36 43H34C34 44.1046 34.8954 45 36 45V43ZM40 43H36V45H40V43ZM40 43V45C41.1046 45 42 44.1046 42 43H40ZM40 39V43H42V39H40ZM45 38H41V40H45V38ZM45 38V40C46.1046 40 47 39.1046 47 38H45ZM45 34V38H47V34H45ZM45 34H47C47 32.8954 46.1046 32 45 32V34ZM41 34H45V32H41V34ZM40 29V33H42V29H40ZM40 29H42C42 27.8954 41.1046 27 40 27V29ZM36 29H40V27H36V29Z" fill="#162043"/>
</svg>
