<?xml version="1.0" encoding="UTF-8"?>
<svg width="50px" height="50px" viewBox="0 0 50 50" version="1.1" xmlns="http://www.w3.org/2000/svg" xmlns:xlink="http://www.w3.org/1999/xlink">
    <!-- Generator: Sketch 53.2 (72643) - https://sketchapp.com -->
    <title>sidebar-icon-3</title>
    <desc>Created with Sketch.</desc>
    <g id="sidebar-icon-3" stroke="none" stroke-width="1" fill="none" fill-rule="evenodd">
        <g>
            <rect id="Rectangle" fill-opacity="0" fill="#FFFFFF" x="0" y="0" width="50" height="50"></rect>
            <g id="Group-7" transform="translate(4.500000, 4.000000)">
                <circle id="Oval" fill="#FFF4B7" cx="26" cy="15" r="15"></circle>
                <g id="hiring" transform="translate(0.000000, 3.000000)" fill="#1E3563">
                    <path d="M36.1583762,28.0036523 C35.2066901,27.0501074 33.7117602,26.9135977 32.6037797,27.679252 C32.5956296,27.6848887 32.5876238,27.6906699 32.5797622,27.6965957 L28.5367368,30.7430254 C28.2183782,30.982875 28.1544035,31.4359805 28.3937856,31.7549609 C28.6331676,32.0738691 29.0853177,32.1381133 29.4036764,31.8981191 L33.4337193,28.8614453 C33.9672982,28.5002617 34.6821267,28.5683359 35.1383879,29.0255605 C35.378924,29.2665664 35.5016082,29.5867754 35.4838655,29.9271465 C35.4661228,30.2675176 35.310694,30.5732012 35.0463567,30.7877578 L31.3559493,33.7825898 C29.9478577,34.9253262 28.1744542,35.5546875 26.3623918,35.5546875 L15.6875673,35.5546875 C14.2383645,35.5546875 12.8171462,35.157082 11.5776101,34.4048691 L8.67307407,32.6422383 L8.67307407,23.496084 L14.2350468,23.496084 C15.0056277,23.496084 15.7301209,23.7967813 16.2738694,24.3415918 L20.1109064,28.2041172 C20.655809,28.750084 21.3803021,29.0507813 22.150883,29.0507813 L24.98077,29.0507813 C25.5765205,29.0507813 26.0611267,29.5364063 26.0611267,30.133248 C26.0611267,30.7300898 25.5764483,31.2157148 24.98077,31.2157148 L19.545809,31.2157148 C19.0473548,31.2157148 18.5631092,31.071834 18.1453626,30.7995371 L15.830807,29.291209 L15.8223684,29.2857168 C15.4887914,29.0676914 15.0419064,29.1616367 14.8241618,29.4958652 C14.6064172,29.8300937 14.7003236,30.2778516 15.0339006,30.4960215 L17.3588421,32.0111426 C18.0112105,32.4363535 18.7674386,32.6610273 19.545809,32.6610273 L24.9806979,32.6610273 C26.3718402,32.6610273 27.5035497,31.5271074 27.5035497,30.133248 C27.5035497,28.7393887 26.371768,27.6054688 24.9806979,27.6054688 L22.1966823,27.6054688 L28.1929903,24.1367188 L35.4853801,24.1367188 C36.2807719,24.1367188 36.9278752,23.4883516 36.9278752,22.6914062 L36.9278752,1.4453125 C36.9278752,0.648367188 36.2807719,0 35.4853801,0 L20.1949318,0 C19.39954,0 18.7524366,0.648367188 18.7524366,1.4453125 L18.7524366,22.6914063 C18.7524366,23.4883516 19.39954,24.1367188 20.1949318,24.1367188 L25.308,24.1367188 L20.7341365,26.7825801 C20.7340643,26.7825801 20.7340643,26.7826523 20.7339922,26.7826523 L17.2949396,23.3206953 C16.4775497,22.501709 15.390846,22.0506992 14.2349025,22.0506992 L8.67300195,22.0506992 L8.67300195,20.7763672 C8.67300195,19.9794219 8.02589864,19.3310547 7.23050682,19.3310547 L0.721247563,19.3310547 C0.322902534,19.3310547 0,19.6546602 0,20.0537109 L0,36.2773438 C0,36.6763945 0.322902534,37 0.721247563,37 L7.23050682,37 C8.02589864,37 8.67300195,36.3516328 8.67300195,35.5546875 L8.67300195,34.3320254 L10.8302534,35.6411172 C12.2952515,36.5301289 13.9748207,37 15.6875673,37 L26.3623918,37 C28.5039201,37 30.5997934,36.2562422 32.2638558,34.9057422 L35.9542632,31.9109102 C36.5319103,31.4420508 36.885538,30.7465664 36.9243411,30.0027363 C36.9632164,29.2589063 36.6839493,28.530252 36.1583762,28.0036523 Z M20.1949318,22.6914063 L20.1949318,1.4453125 L35.4853801,1.4453125 L35.4863177,22.6914063 C35.4863177,22.6914063 35.4860292,22.6914063 35.4853801,22.6914063 L20.1949318,22.6914063 Z M7.23050682,35.5546875 L1.44249513,35.5546875 L1.44249513,20.7763672 L7.23050682,20.7763672 L7.23065107,22.7709707 C7.23065107,22.7717656 7.23050682,22.7725605 7.23050682,22.7734277 C7.23050682,22.7742949 7.23065107,22.7750176 7.23065107,22.7758848 L7.23130019,33.0141895 C7.2304347,33.0324727 7.23079532,33.0506836 7.23130019,33.0688223 L7.23144444,35.5546875 C7.23144444,35.5546875 7.23115595,35.5546875 7.23050682,35.5546875 Z" id="Shape" fill-rule="nonzero"></path>
                    <path d="M16.8887329,3.63973047 C16.6895965,3.29408398 16.2484094,3.17564063 15.9035088,3.37523828 L9.41054971,7.13124414 C8.72175828,7.52978906 8.48497271,8.41547656 8.88259649,9.10554102 L15.1840643,20.0413535 C15.3176394,20.2731816 15.5600507,20.4028262 15.8093138,20.4028262 C15.9316374,20.4028262 16.055692,20.3715352 16.1692885,20.3058457 C16.5142612,20.106248 16.6324737,19.6643438 16.4332651,19.3186973 L10.1317973,8.38288477 L16.6247563,4.62687891 C16.969729,4.42735352 17.0879415,3.98537695 16.8887329,3.63973047 Z" id="Path" fill-rule="nonzero"></path>
                    <path d="M32.3118908,15.3203125 L23.9454191,15.3203125 C23.5470741,15.3203125 23.2241715,15.6438457 23.2241715,16.0429688 C23.2241715,16.4420918 23.5470741,16.765625 23.9454191,16.765625 L32.3118908,16.765625 C32.7102359,16.765625 33.0331384,16.4420918 33.0331384,16.0429688 C33.0331384,15.6438457 32.7102359,15.3203125 32.3118908,15.3203125 Z" id="Path" fill-rule="nonzero"></path>
                    <path d="M32.8218129,18.7117383 C32.6876608,18.5773242 32.5015789,18.5 32.3118908,18.5 C32.1222027,18.5 31.9361209,18.577252 31.8019688,18.7117383 C31.6678168,18.8461523 31.5906433,19.0325977 31.5906433,19.2226562 C31.5906433,19.4127148 31.6678168,19.5991602 31.8019688,19.733502 C31.9361209,19.867916 32.1222027,19.9453125 32.3118908,19.9453125 C32.5015789,19.9453125 32.6876608,19.8679883 32.8218129,19.733502 C32.9559649,19.5991602 33.0331384,19.4127148 33.0331384,19.2226562 C33.0331384,19.0325977 32.9559649,18.8461523 32.8218129,18.7117383 Z" id="Path" fill-rule="nonzero"></path>
                    <path d="M29.3037115,18.5 L23.9454191,18.5 C23.5470741,18.5 23.2241715,18.8236055 23.2241715,19.2226562 C23.2241715,19.621707 23.5470741,19.9453125 23.9454191,19.9453125 L29.3037115,19.9453125 C29.7020565,19.9453125 30.0249591,19.621707 30.0249591,19.2226562 C30.0249591,18.8236055 29.7020565,18.5 29.3037115,18.5 Z" id="Path" fill-rule="nonzero"></path>
                    <path d="M32.3118908,11.7105564 L23.9454191,11.7105564 C23.5470741,11.7105564 23.2241715,12.0340896 23.2241715,12.4332127 C23.2241715,12.8323357 23.5470741,13.1558689 23.9454191,13.1558689 L32.3118908,13.1558689 C32.7102359,13.1558689 33.0331384,12.8323357 33.0331384,12.4332127 C33.0331384,12.0340896 32.7102359,11.7105564 32.3118908,11.7105564 Z" id="Path" fill-rule="nonzero"></path>
                    <rect id="Rectangle" x="22.5609756" y="4.51219512" width="10.8292683" height="5.41463415"></rect>
                    <path d="M4.33650097,26.6332793 C3.93815595,26.6332793 3.61525341,26.9568848 3.61525341,27.3559355 L3.61525341,30.1829668 C3.61525341,30.5820176 3.93815595,30.905623 4.33650097,30.905623 C4.734846,30.905623 5.05774854,30.5820176 5.05774854,30.1829668 L5.05774854,27.3559355 C5.05774854,26.9568125 4.734846,26.6332793 4.33650097,26.6332793 Z" id="Path" fill-rule="nonzero"></path>
                    <path d="M4.84678363,32.1596484 C4.71191033,32.0252344 4.52654971,31.9479102 4.33614035,31.9479102 C4.14645224,31.9479102 3.96109162,32.0252344 3.82621832,32.1596484 C3.69206628,32.2940625 3.61561404,32.4805078 3.61561404,32.6705664 C3.61561404,32.8613477 3.69206628,33.0470703 3.82621832,33.1814844 C3.96037037,33.3158262 4.14645224,33.3932227 4.33614035,33.3932227 C4.52654971,33.3932227 4.71191033,33.3158984 4.84678363,33.1814844 C4.98093567,33.0470703 5.05738791,32.8612754 5.05738791,32.6705664 C5.05738791,32.4805078 4.98093567,32.2940625 4.84678363,32.1596484 Z" id="Path" fill-rule="nonzero"></path>
                </g>
            </g>
        </g>
    </g>
</svg>